<?xml version="1.0" standalone="no"?>
<!DOCTYPE svg PUBLIC "-//W3C//DTD SVG 20010904//EN"
 "http://www.w3.org/TR/2001/REC-SVG-20010904/DTD/svg10.dtd">
<svg version="1.0" xmlns="http://www.w3.org/2000/svg"
 width="320.000000pt" height="320.000000pt" viewBox="0 0 320.000000 320.000000"
 preserveAspectRatio="xMidYMid meet">
<metadata>
Created by potrace 1.11, written by Peter Selinger 2001-2013
</metadata>
<g transform="translate(0.000000,320.000000) scale(0.100000,-0.100000)"
fill="#000000" stroke="none">
<path d="M1211 3135 c-14 -70 -10 -66 -93 -80 -75 -12 -192 -81 -259 -153 -80
-84 -123 -164 -156 -289 -22 -85 -26 -122 -29 -282 -3 -158 -11 -256 -30 -358
-2 -13 -11 -23 -19 -23 -16 0 -20 -12 -8 -24 4 -4 9 -22 10 -39 6 -89 29 -167
26 -89 -1 22 14 13 26 -16 10 -23 9 -37 -3 -73 -9 -24 -16 -52 -16 -62 0 -9
-9 -25 -19 -34 -27 -23 -13 -45 52 -88 46 -29 54 -40 70 -92 26 -81 76 -185
87 -178 6 3 8 0 5 -7 -12 -30 141 -188 213 -221 20 -9 23 -16 17 -41 -4 -17
-9 -64 -12 -103 -3 -56 -1 -76 10 -88 8 -8 18 -34 22 -57 11 -78 54 -172 92
-202 37 -30 55 -28 35 4 -16 26 -15 35 2 21 8 -7 17 -22 20 -34 6 -24 52 -52
104 -62 17 -4 32 -11 32 -16 0 -15 -118 -10 -157 6 -20 8 -38 13 -41 11 -2 -3
11 -23 28 -45 34 -42 104 -75 243 -115 32 -9 56 -20 53 -24 -2 -4 29 -29 70
-56 41 -27 73 -51 70 -53 -2 -2 -46 16 -98 41 -94 46 -141 60 -102 31 33 -25
-78 9 -133 40 -27 15 -61 34 -78 42 -16 8 -50 25 -74 36 -52 26 -138 100 -146
127 -9 29 -26 24 -19 -5 5 -20 3 -24 -10 -19 -13 5 -16 -2 -16 -47 -1 -44 -3
-51 -12 -35 -7 12 -8 44 -4 88 6 69 6 69 -16 62 -48 -14 -124 -57 -155 -87
-46 -44 -56 -103 -44 -258 6 -68 13 -139 17 -156 l7 -33 862 0 863 0 7 106 c6
88 5 108 -8 121 -13 14 -16 13 -22 -6 -8 -27 -49 -48 -111 -56 -67 -9 -260 26
-399 73 -115 39 -388 170 -389 187 -1 14 -61 45 -88 45 -12 0 -19 3 -15 6 3 3
-10 19 -29 36 -19 16 -31 35 -28 40 4 6 10 5 15 -3 5 -8 9 -9 9 -4 0 6 19 11
43 13 49 3 88 17 136 49 19 13 41 23 50 23 34 0 87 59 129 143 23 47 42 87 42
90 0 2 -26 -2 -57 -10 -87 -21 -234 -18 -323 5 -91 24 -250 90 -250 104 0 5
-5 6 -10 3 -6 -4 -9 -1 -8 6 2 7 -7 18 -19 24 -13 5 -23 13 -23 17 0 5 -7 8
-16 8 -8 0 -12 5 -9 10 3 6 2 10 -3 10 -22 0 -114 105 -146 169 -22 41 -13 52
48 58 56 7 51 23 -7 24 -32 0 -37 2 -22 8 11 5 92 8 180 8 133 0 167 3 197 17
83 40 148 148 194 322 13 52 24 96 24 99 0 10 37 23 48 16 7 -4 26 -58 43
-121 35 -132 65 -195 120 -255 66 -72 92 -77 350 -73 249 3 266 7 307 68 13
19 29 55 35 79 8 31 19 47 37 55 36 16 53 33 38 39 -7 2 -19 -3 -27 -10 -22
-22 -24 -9 -11 68 8 48 15 67 21 58 6 -10 9 -5 10 16 4 104 14 135 42 135 7 0
7 -4 -1 -12 -7 -7 -12 -16 -12 -21 0 -6 12 3 26 19 26 27 26 29 10 57 -20 36
-20 53 0 61 8 3 12 11 9 17 -4 6 -13 8 -20 5 -14 -5 -17 8 -32 114 -9 66 -5
143 8 151 8 4 9 19 5 40 -4 19 -11 77 -16 129 -13 124 -62 316 -86 336 -11 9
-12 12 -5 8 9 -5 6 5 -7 23 -12 17 -22 36 -22 41 0 22 -106 125 -154 149 -28
14 -68 41 -89 60 -49 43 -89 63 -95 45 -2 -6 -13 -12 -23 -12 -11 0 -18 3 -16
8 3 4 -9 8 -26 9 -41 3 -58 21 -33 35 12 7 15 13 7 17 -6 4 -13 24 -15 44 -3
21 -8 42 -11 47 -4 6 -153 10 -394 10 l-387 0 -13 -65z m379 11 c0 -2 -16 -21
-35 -42 -26 -30 -33 -34 -29 -17 7 24 40 63 54 63 6 0 10 -2 10 -4z m155 -316
c-9 -18 -19 -30 -21 -27 -3 3 2 19 11 37 9 18 19 30 21 27 3 -3 -2 -19 -11
-37z m460 -5 c-82 -12 -120 -12 -84 -1 8 2 21 7 29 9 8 3 44 5 80 5 l65 0 -90
-13z m-565 -44 c-5 -11 -15 -23 -22 -27 -7 -5 -8 -2 -3 7 21 37 44 55 25 20z
m-232 -57 c73 -33 187 -57 232 -49 80 16 92 17 85 6 -10 -17 16 -13 65 11 49
23 81 24 153 3 26 -8 47 -10 47 -4 0 5 -11 9 -25 9 -39 0 -29 17 12 22 43 5
104 -4 181 -28 42 -13 52 -20 47 -33 -3 -11 3 -25 15 -36 11 -10 20 -24 20
-32 0 -23 57 -100 96 -129 24 -19 31 -29 23 -35 -9 -5 -10 -11 -2 -21 14 -17
22 -83 25 -190 1 -48 4 -85 7 -84 3 2 7 -7 8 -21 1 -20 -1 -23 -9 -12 -7 10
-8 9 -2 -6 4 -11 8 -34 8 -52 1 -17 4 -29 9 -26 4 2 7 0 7 -6 0 -5 15 -13 33
-16 17 -4 37 -11 42 -15 6 -4 19 -10 30 -13 12 -3 5 -5 -16 -6 -20 0 -54 6
-75 15 -52 22 -342 31 -476 15 -108 -12 -259 -56 -271 -77 -4 -8 -15 -14 -23
-14 -8 0 -12 5 -9 10 4 6 -7 10 -25 10 -17 0 -76 14 -132 30 -138 41 -258 53
-467 48 -97 -2 -162 -1 -146 3 17 4 44 12 60 17 l30 10 -27 1 c-35 1 -33 28 5
76 43 54 78 66 209 72 125 6 153 17 123 47 -34 33 -240 15 -299 -27 l-28 -20
12 24 c12 23 12 23 -6 8 -27 -24 -61 -32 -70 -18 -4 7 -3 9 3 6 6 -4 16 0 23
8 11 13 10 14 -4 9 -9 -3 -16 -1 -16 5 0 6 5 11 11 11 7 0 9 12 5 33 -3 19 0
54 8 80 8 26 11 47 8 47 -3 0 -1 5 6 12 7 7 12 20 12 30 0 10 5 18 10 18 6 0
10 7 10 15 0 28 48 92 77 103 15 6 50 18 78 28 47 18 125 81 125 102 0 9 47
32 108 51 2 1 29 -11 60 -25z m-180 -791 c28 -16 74 -50 103 -76 28 -27 54
-45 57 -42 4 4 1 10 -5 12 -7 3 -13 11 -13 19 0 8 -6 14 -14 14 -19 0 -31 19
-19 31 14 14 104 -18 126 -44 10 -12 25 -35 33 -52 l15 -30 -6 35 c-5 30 -4
32 6 16 27 -44 -18 -279 -72 -376 -12 -21 -33 -47 -48 -57 -57 -42 -82 -45
-283 -41 -168 3 -199 6 -238 24 -25 12 -51 28 -58 36 -7 9 -19 60 -28 114 -23
155 -26 200 -4 84 27 -144 44 -187 75 -187 14 0 23 3 20 7 -7 11 19 60 32 60
6 0 13 6 16 13 3 9 9 9 28 1 83 -40 316 -67 374 -45 11 5 -14 6 -56 3 -157
-10 -327 63 -366 157 -13 31 -13 38 4 70 10 20 23 41 29 46 7 6 19 24 28 40
14 24 15 25 9 5 -14 -43 -8 -133 11 -170 46 -89 119 -134 217 -134 86 0 148
34 193 107 l31 51 3 -47 c2 -25 -2 -55 -8 -67 -12 -22 1 -27 19 -6 18 22 24
98 12 171 -12 82 -43 149 -59 133 -8 -8 -24 1 -58 31 -59 52 -130 86 -219 105
l-70 14 66 1 c54 1 76 -4 117 -26z m969 16 c-10 -6 -25 -8 -32 -5 -21 8 -122
-21 -178 -51 -27 -15 -73 -53 -103 -85 -29 -33 -51 -51 -48 -41 5 15 4 16 -5
3 -6 -8 -11 -25 -11 -37 0 -12 -5 -23 -11 -25 -18 -6 -13 -174 6 -201 16 -22
16 -22 9 8 -3 17 -7 32 -6 35 0 3 0 23 1 45 l1 40 19 -40 c46 -101 171 -155
276 -120 70 24 109 56 139 117 35 70 35 136 0 206 -25 51 -44 67 -44 37 0 -18
-14 -19 -41 -5 -30 16 -24 40 11 40 31 0 81 -18 92 -35 5 -6 8 -6 8 0 0 7 3 7
8 0 4 -5 16 -15 27 -21 11 -6 28 -33 38 -60 33 -89 4 -171 -80 -224 -71 -45
-149 -71 -243 -80 l-85 -9 95 4 c146 5 280 55 328 122 11 16 32 55 46 87 38
85 50 67 43 -63 -8 -139 -14 -166 -46 -200 -38 -40 -102 -51 -302 -51 -185 0
-219 7 -272 58 -41 39 -62 85 -91 200 -30 116 -33 190 -10 238 17 36 88 94
113 94 9 -1 3 -7 -14 -14 -29 -12 -28 -13 22 -8 31 2 58 0 66 -6 9 -8 28 -2
72 23 55 31 67 34 140 34 61 0 76 -2 62 -10z m60 5 c-3 -3 -12 -4 -19 -1 -8 3
-5 6 6 6 11 1 17 -2 13 -5z m-848 -26 c31 -11 69 -45 83 -73 5 -11 -5 -4 -24
16 -38 42 -48 47 -138 65 l-65 13 59 -5 c33 -3 71 -10 85 -16z m559 15 c-10
-2 -28 -2 -40 0 -13 2 -5 4 17 4 22 1 32 -1 23 -4z m-71 -9 c-3 -3 -12 -4 -19
-1 -8 3 -5 6 6 6 11 1 17 -2 13 -5z m516 -1 c-7 -2 -19 -2 -25 0 -7 3 -2 5 12
5 14 0 19 -2 13 -5z m162 -13 c18 -8 17 -9 -7 -9 -16 -1 -28 4 -28 9 0 12 8
12 35 0z m-1340 -63 c10 -8 15 -19 12 -25 -11 -16 -47 -2 -47 19 0 22 9 24 35
6z m-230 -27 c-17 -33 -21 -35 -31 -18 -4 7 -3 8 4 4 7 -4 12 -1 12 6 0 12 19
38 27 38 2 0 -3 -13 -12 -30z m-288 -232 c7 -67 -1 -72 -47 -28 -25 24 -28 31
-15 36 8 3 15 15 15 26 0 10 5 16 10 13 6 -4 10 8 11 27 0 31 1 32 10 9 5 -14
12 -51 16 -83z m640 -941 c2 -23 0 -28 -7 -17 -9 13 -10 13 -10 0 0 -9 4 -20
10 -26 6 -6 3 -10 -10 -11 -11 -1 -20 2 -20 7 0 5 -8 6 -17 3 -11 -4 -4 9 17
35 18 23 34 42 34 42 1 0 2 -15 3 -33z"/>
<path d="M1930 2228 c-16 -7 -20 -12 -12 -15 8 -3 21 2 30 11 19 18 17 19 -18
4z"/>
<path d="M1970 2223 c-14 -9 -32 -24 -40 -32 -16 -16 -17 -16 35 5 8 3 15 2
15 -4 0 -5 18 -7 41 -5 52 6 189 -13 227 -32 16 -8 37 -24 47 -35 10 -11 24
-20 32 -20 7 0 13 -4 13 -10 0 -5 5 -10 11 -10 11 0 7 21 -13 73 -11 29 -31
38 -22 10 5 -16 4 -16 -8 -3 -44 52 -134 80 -252 80 -42 0 -70 -6 -86 -17z"/>
<path d="M1295 2220 c3 -5 11 -10 16 -10 6 0 7 5 4 10 -3 6 -11 10 -16 10 -6
0 -7 -4 -4 -10z"/>
<path d="M1340 1879 c0 -5 5 -7 10 -4 6 3 10 8 10 11 0 2 -4 4 -10 4 -5 0 -10
-5 -10 -11z"/>
<path d="M1885 1850 c-16 -16 -26 -30 -22 -30 4 0 21 14 39 30 17 17 27 30 21
30 -5 0 -22 -13 -38 -30z"/>
<path d="M1860 1470 c8 -5 20 -10 25 -10 6 0 3 5 -5 10 -8 5 -19 10 -25 10 -5
0 -3 -5 5 -10z"/>
<path d="M1506 1404 c-3 -9 -2 -23 3 -32 8 -13 10 -10 9 16 -1 36 -3 39 -12
16z"/>
<path d="M1545 1198 c-11 -7 -35 -17 -54 -24 l-33 -11 55 -32 c56 -32 97 -43
61 -16 -10 8 -14 15 -9 15 134 12 139 12 126 -4 -8 -9 -22 -16 -32 -16 -11 0
-19 -4 -19 -10 0 -6 10 -6 28 1 38 14 112 53 112 59 0 3 -24 15 -53 28 -57 24
-148 29 -182 10z m140 -18 c-3 -5 -30 -10 -60 -10 -30 0 -57 5 -60 10 -4 6 18
10 60 10 42 0 64 -4 60 -10z"/>
<path d="M1115 461 c17 -18 38 -37 47 -42 28 -15 12 14 -20 38 -49 35 -57 37
-27 4z"/>
</g>
</svg>
